<svg xmlns="http://www.w3.org/2000/svg" viewBox="0 0 720 520" role="img" aria-labelledby="title desc">
  <title id="title">Local benchmark rig</title><desc id="desc">A deterministic local fixture supplies 120 pages to a crawler extraction rig and measured JSON output.</desc>
  <defs><linearGradient id="metal" x1="0" y1="0" x2="1" y2="1"><stop stop-color="#37584c"/><stop offset="1" stop-color="#0b1713"/></linearGradient><pattern id="grid" width="32" height="32" patternUnits="userSpaceOnUse"><path d="M32 0H0V32" fill="none" stroke="#284139" opacity=".3"/></pattern></defs>
  <rect width="720" height="520" fill="#07100e"/><rect width="720" height="520" fill="url(#grid)"/>
  <path d="M70 390 311 269l340 92-239 126z" fill="#091411" stroke="#355349"/>
  <g transform="translate(87 219)"><path d="m0 52 83-40 85 24-84 41z" fill="#183128" stroke="#79f2a6"/><path d="M0 52v114l84 24V77z" fill="#0a1713" stroke="#45675c"/><path d="M84 77v113l84-42V36z" fill="#0d211a" stroke="#45675c"/><path d="M26 76h69M26 101h97M26 126h60" stroke="#82a098" stroke-width="4"/><text x="20" y="154" fill="#c3d3cd" font-family="monospace" font-size="12" transform="skewY(16)">120 PAGES</text></g>
  <g transform="translate(299 132)"><path d="m0 91 104-50 113 31-105 53z" fill="url(#metal)" stroke="#79f2a6"/><path d="M0 91v207l112 32V125z" fill="#0a1713" stroke="#45675c"/><path d="M112 125v205l105-52V72z" fill="#0d211a" stroke="#45675c"/><circle cx="55" cy="132" r="18" fill="#07100e" stroke="#79f2a6" stroke-width="4"/><path d="m55 120 7 15-16 4" fill="none" stroke="#79f2a6" stroke-width="4"/><path d="M91 131h60M32 177h120M32 210h92" stroke="#7e9d92" stroke-width="4"/><text x="31" y="270" fill="#c3d3cd" font-family="monospace" font-size="13" transform="skewY(16)">LOCAL EXTRACT</text></g>
  <g transform="translate(528 243)"><path d="m0 42 66-32 67 19-67 33z" fill="#173128" stroke="#8cd8e8"/><path d="M0 42v83l66 19V62z" fill="#0a1713" stroke="#45675c"/><path d="M66 62v82l67-33V29z" fill="#0d211a" stroke="#45675c"/><text x="19" y="83" fill="#b9e7f1" font-family="monospace" font-size="12">JSON</text><text x="20" y="104" fill="#829e95" font-family="monospace" font-size="10">TIMING</text></g>
  <path d="M251 362 316 329M503 359l44-22" stroke="#79f2a6" stroke-width="4" stroke-dasharray="8 6"/>
  <g transform="translate(252 432)"><rect width="260" height="39" fill="#0a1713" stroke="#45675c"/><path d="M18 20h170" stroke="#284139" stroke-width="6"/><path d="M18 20h126" stroke="#79f2a6" stroke-width="6"/><text x="202" y="25" fill="#b1f8c9" font-family="monospace" font-size="12">120 / 120</text></g>
  <text x="34" y="44" fill="#79f2a6" font-family="monospace" font-size="12" letter-spacing="2">DETERMINISTIC LOCAL FIXTURE</text><text x="34" y="69" fill="#8da19a" font-family="monospace" font-size="11">regression signal · no internet · no competitor rank</text>
</svg>
