<svg xmlns="http://www.w3.org/2000/svg" viewBox="0 0 720 560" role="img" aria-labelledby="title desc">
  <title id="title">Browser request boundary</title><desc id="desc">A browser chamber sends HTTP requests through a policy router while WebSockets, WebRTC, and state-changing methods terminate at blocked ports.</desc>
  <defs><linearGradient id="case" x1="0" y1="0" x2="1" y2="1"><stop stop-color="#1c312a"/><stop offset="1" stop-color="#091310"/></linearGradient><pattern id="grid" width="32" height="32" patternUnits="userSpaceOnUse"><path d="M32 0H0V32" fill="none" stroke="#2e4a41" opacity=".3"/></pattern></defs>
  <rect width="720" height="560" fill="#07100e"/><rect width="720" height="560" fill="url(#grid)"/>
  <path d="m88 179 231-105 308 87-232 112z" fill="url(#case)" stroke="#45675c"/>
  <path d="M88 179v233l307 88V273z" fill="#0a1512" stroke="#45675c"/>
  <path d="M395 273v227l232-113V161z" fill="#091713" stroke="#45675c"/>
  <path d="m130 192 198-88 251 70-198 96z" fill="#0d1c18" stroke="#79f2a6"/>
  <path d="M158 189 329 116l214 59-172 82z" fill="#06100d" stroke="#2d5145"/>
  <circle cx="178" cy="182" r="5" fill="#ff8b7b"/><circle cx="196" cy="174" r="5" fill="#ffb589"/><circle cx="214" cy="166" r="5" fill="#79f2a6"/>
  <path d="m190 210 156-65 144 40-155 70z" fill="#0c1915" stroke="#45675c"/>
  <path d="m261 213 61-26 62 17-62 28z" fill="#173b2b" stroke="#79f2a6"/>
  <path d="M322 232v69M290 245v46M354 218v75" stroke="#79f2a6" stroke-width="3" opacity=".65"/>
  <text x="172" y="317" fill="#c7d4cf" font-family="monospace" font-size="14" transform="skewY(16)">CHROMIUM CHAMBER</text>
  <g transform="translate(430 249)"><path d="m0 46 79-38 77 22-80 39z" fill="#183128" stroke="#8cd8e8"/><path d="M0 46v88l76 22V69z" fill="#0b1814" stroke="#45675c"/><path d="M76 69v87l80-39V30z" fill="#0c211a" stroke="#45675c"/><circle cx="34" cy="72" r="10" fill="#79f2a6"/><path d="M55 71h45M25 97h76M25 117h55" stroke="#7a9990" stroke-width="3"/><text x="20" y="-8" fill="#8cd8e8" font-family="monospace" font-size="11">PINNED ROUTER</text></g>
  <path d="M388 314 445 291M388 341l57-24M388 369l57-25" stroke="#79f2a6" stroke-width="3" stroke-dasharray="7 6"/>
  <g transform="translate(94 391)"><rect width="102" height="42" fill="#131c1a" stroke="#ff8b7b"/><text x="51" y="26" text-anchor="middle" fill="#ffb7ae" font-family="monospace" font-size="11">POST / PUT</text><path d="m43 7 16 28M59 7 43 35" stroke="#ff8b7b" stroke-width="2"/></g>
  <g transform="translate(213 425)"><rect width="102" height="42" fill="#131c1a" stroke="#ff8b7b"/><text x="51" y="26" text-anchor="middle" fill="#ffb7ae" font-family="monospace" font-size="11">WEBSOCKET</text></g>
  <g transform="translate(332 454)"><rect width="102" height="42" fill="#131c1a" stroke="#ff8b7b"/><text x="51" y="26" text-anchor="middle" fill="#ffb7ae" font-family="monospace" font-size="11">WEBRTC</text></g>
  <text x="34" y="44" fill="#79f2a6" font-family="monospace" font-size="12" letter-spacing="2">OPTIONAL BROWSER / CONTROLLED EGRESS</text><text x="34" y="69" fill="#8da19a" font-family="monospace" font-size="11">network boundary ≠ process sandbox</text>
</svg>
