<svg width="960" height="320" viewBox="0 0 960 320" fill="none" xmlns="http://www.w3.org/2000/svg" role="img" aria-labelledby="title desc">
  <title id="title">Cockroach Crawler logo</title>
  <desc id="desc">A geometric amber and black crawler mark with the words Cockroach Crawler.</desc>
  <rect width="960" height="320" rx="40" fill="#FFF8EC"/>
  <g transform="translate(72 58)">
    <path d="M112 16C166 16 210 60 210 114C210 168 166 212 112 212C58 212 14 168 14 114C14 60 58 16 112 16Z" fill="#171717"/>
    <path d="M112 40C153 40 186 73 186 114C186 155 153 188 112 188C71 188 38 155 38 114C38 73 71 40 112 40Z" fill="#F59E0B"/>
    <path d="M112 58C143 58 168 83 168 114C168 145 143 170 112 170C81 170 56 145 56 114C56 83 81 58 112 58Z" fill="#171717"/>
    <path d="M112 78C132 78 148 94 148 114C148 134 132 150 112 150C92 150 76 134 76 114C76 94 92 78 112 78Z" fill="#FFF8EC"/>
    <path d="M112 45V184" stroke="#FFF8EC" stroke-width="10" stroke-linecap="round"/>
    <path d="M54 74L16 40M170 74L208 40" stroke="#171717" stroke-width="12" stroke-linecap="round"/>
    <circle cx="12" cy="36" r="10" fill="#F59E0B"/>
    <circle cx="212" cy="36" r="10" fill="#F59E0B"/>
    <path d="M54 106H10M170 106H214M58 142H18M166 142H206" stroke="#171717" stroke-width="12" stroke-linecap="round"/>
    <path d="M34 214L188 214" stroke="#171717" stroke-width="12" stroke-linecap="round"/>
    <path d="M52 236L170 236" stroke="#F59E0B" stroke-width="12" stroke-linecap="round"/>
  </g>
  <g transform="translate(330 82)">
    <text x="0" y="72" font-family="Inter, ui-sans-serif, system-ui, -apple-system, BlinkMacSystemFont, Segoe UI, sans-serif" font-size="64" font-weight="850" fill="#171717">Cockroach</text>
    <text x="0" y="142" font-family="Inter, ui-sans-serif, system-ui, -apple-system, BlinkMacSystemFont, Segoe UI, sans-serif" font-size="64" font-weight="850" fill="#F59E0B">Crawler</text>
    <path d="M2 170H430" stroke="#171717" stroke-width="8" stroke-linecap="round"/>
    <path d="M2 192H280" stroke="#F59E0B" stroke-width="8" stroke-linecap="round"/>
  </g>
</svg>
