<svg xmlns="http://www.w3.org/2000/svg" width="1200" height="630" viewBox="0 0 1200 630" role="img" aria-labelledby="title desc">
    <title id="title">Your crawler should know when to stop.</title>
    <desc id="desc">Hard ceilings for pages, depth, bytes, requests, concurrency, and time.</desc>
    <defs>
    <linearGradient id="bg" x1="0" y1="0" x2="1" y2="1"><stop stop-color="#07100e"/><stop offset="1" stop-color="#050806"/></linearGradient>
    <linearGradient id="metal" x1="0" y1="0" x2="1" y2="1"><stop stop-color="#426156"/><stop offset=".45" stop-color="#1d312a"/><stop offset="1" stop-color="#0b1512"/></linearGradient>
    <linearGradient id="metal2" x1="0" y1="0" x2="1" y2="1"><stop stop-color="#223c33"/><stop offset="1" stop-color="#0a1411"/></linearGradient>
    <linearGradient id="beam" x1="0" x2="1"><stop stop-color="#79f2a6" stop-opacity="0"/><stop offset=".5" stop-color="#79f2a6"/><stop offset="1" stop-color="#8cd8e8" stop-opacity="0"/></linearGradient>
    <radialGradient id="glow"><stop stop-color="#79f2a6" stop-opacity=".3"/><stop offset="1" stop-color="#79f2a6" stop-opacity="0"/></radialGradient>
    <pattern id="grid" width="36" height="36" patternUnits="userSpaceOnUse"><path d="M36 0H0V36" fill="none" stroke="#284139" stroke-width="1" opacity=".32"/></pattern>
    <filter id="soft"><feGaussianBlur stdDeviation="18"/></filter>
    <filter id="shadow"><feDropShadow dx="0" dy="18" stdDeviation="16" flood-color="#000" flood-opacity=".55"/></filter>
  </defs>
    <rect width="1200" height="630" fill="url(#bg)"/><rect width="1200" height="630" fill="url(#grid)" opacity=".18"/>
    <path d="M0 18.9H1200" stroke="#1e3029"/><path d="M0 607.9499999999999H1200" stroke="#1e3029"/>
    <g transform="translate(38 38)">
    <rect width="28.349999999999998" height="28.349999999999998" rx="5.103" fill="#0e1c17" stroke="#45675c"/>
    <path d="M5.67 19.845V9.639l8.504999999999999 5.67 8.504999999999999-5.67v10.206" fill="none" stroke="#79f2a6" stroke-width="2.268" stroke-linecap="square" stroke-linejoin="miter"/>
    <circle cx="14.174999999999999" cy="15.309" r="2.1262499999999998" fill="#8cd8e8"/>
    <text x="41.349999999999994" y="19.5615" fill="#f1f5f2" font-family="'Arial',sans-serif" font-size="13.324499999999999" font-weight="700" letter-spacing="3.4019999999999997">COCKROACH CRAWLER</text>
  </g>
    <text x="38" y="129.05928500496526" fill="#79f2a6" font-family="'Courier New',monospace" font-size="13.23" font-weight="700" letter-spacing="2.3814">CRAWLER CONTROL PLANE</text>
    <text x="38" y="170.10000000000002" fill="#f1f5f2" font-family="'Arial',sans-serif" font-size="50.04965243296921" font-weight="750" letter-spacing="-1.6015888778550147"><tspan x="38" dy="0">Your crawler should</tspan><tspan x="38" dy="48.04766633565044">know when to stop.</tspan></text>
    <foreignObject x="38" y="256.68589870903673" width="504" height="44.761500000000005"><div xmlns="http://www.w3.org/1999/xhtml" style="font-family:Arial,sans-serif;font-size:18.27px;line-height:1.42;color:#a7b7b0;max-width:504px">Hard ceilings for pages, depth, bytes, requests, concurrency, and time.</div></foreignObject>
    <g transform="translate(38 312.40939870903674)"><rect width="150.5" height="26.25" rx="13.125" fill="#08110e" stroke="#79f2a6" stroke-opacity=".55"/><circle cx="12.25" cy="13.125" r="3.0625" fill="#79f2a6"/><text x="21.875" y="17.0625" fill="#c9d8d2" font-family="'Courier New',monospace" font-size="9.625" letter-spacing="0.30624999999999997">DETERMINISTIC LIMITS</text></g><g transform="translate(197.25 312.40939870903674)"><rect width="119" height="26.25" rx="13.125" fill="#08110e" stroke="#8cd8e8" stroke-opacity=".55"/><circle cx="12.25" cy="13.125" r="3.0625" fill="#8cd8e8"/><text x="21.875" y="17.0625" fill="#c9d8d2" font-family="'Courier New',monospace" font-size="9.625" letter-spacing="0.30624999999999997">VISIBLE DENIALS</text></g><g transform="translate(325 312.40939870903674)"><rect width="100.10000000000001" height="26.25" rx="13.125" fill="#08110e" stroke="#79f2a6" stroke-opacity=".55"/><circle cx="12.25" cy="13.125" r="3.0625" fill="#79f2a6"/><text x="21.875" y="17.0625" fill="#c9d8d2" font-family="'Courier New',monospace" font-size="9.625" letter-spacing="0.30624999999999997">BOUNDED WORK</text></g>
    <g transform="translate(612 75.6)"><rect width="540" height="453.59999999999997" fill="#09110e" stroke="#355349"/><svg x="0" y="0" width="540" height="453.59999999999997" viewBox="0 0 720 600" preserveAspectRatio="xMidYMid meet"><svg viewBox="0 0 720 600" role="img" aria-label="Mechanical budget console for pages depth bytes requests concurrency and deadline">
    <rect width="720" height="600" fill="#07100e"/><rect width="720" height="600" fill="url(#grid)"/><circle cx="360" cy="300" r="285" fill="url(#glow)"/>
    <text x="35" y="45" fill="#79f2a6" font-family="monospace" font-size="12" letter-spacing="2">CREATOR-OWNED BUDGETS / EXAMPLE LIMIT SET</text><text x="35" y="70" fill="#8da19a" font-family="monospace" font-size="11">hard ceilings applied before and during discovery</text>
    <g transform="translate(60 106)" filter="url(#shadow)"><path d="M0 70 290 0l310 74-302 76z" fill="url(#metal)" stroke="#55796d"/><path d="M0 70v337l298 82V150z" fill="#091511" stroke="#45675c"/><path d="M298 150v339l302-146V74z" fill="#0c1c17" stroke="#45675c"/>
      <g transform="translate(35 118)"><circle cx="45" cy="38" r="33" fill="#07100e" stroke="#355349" stroke-width="5"/><path d="M18 52a32 32 0 1 1 54 0" fill="none" stroke="#233b32" stroke-width="6"/><path d="M18 52a32 32 0 0 1 56.879999999999995 -33" fill="none" stroke="#79f2a6" stroke-width="5" opacity=".8"/><line x1="45" y1="38" x2="45" y2="15" stroke="#79f2a6" stroke-width="4" transform="rotate(57.19999999999999 45 38)"/><circle cx="45" cy="38" r="5" fill="#79f2a6"/><text x="93" y="27" fill="#879b93" font-family="monospace" font-size="9">PAGES</text><text x="93" y="48" fill="#f1f5f2" font-family="Arial" font-weight="700" font-size="17">120</text></g><g transform="translate(170 118)"><circle cx="45" cy="38" r="33" fill="#07100e" stroke="#355349" stroke-width="5"/><path d="M18 52a32 32 0 1 1 54 0" fill="none" stroke="#233b32" stroke-width="6"/><path d="M18 52a32 32 0 0 1 42.84 -33" fill="none" stroke="#8cd8e8" stroke-width="5" opacity=".8"/><line x1="45" y1="38" x2="45" y2="15" stroke="#8cd8e8" stroke-width="4" transform="rotate(-10.399999999999991 45 38)"/><circle cx="45" cy="38" r="5" fill="#8cd8e8"/><text x="93" y="27" fill="#879b93" font-family="monospace" font-size="9">DEPTH</text><text x="93" y="48" fill="#f1f5f2" font-family="Arial" font-weight="700" font-size="17">4</text></g><g transform="translate(35 211)"><circle cx="45" cy="38" r="33" fill="#07100e" stroke="#355349" stroke-width="5"/><path d="M18 52a32 32 0 1 1 54 0" fill="none" stroke="#233b32" stroke-width="6"/><path d="M18 52a32 32 0 0 1 50.94 -33" fill="none" stroke="#79f2a6" stroke-width="5" opacity=".8"/><line x1="45" y1="38" x2="45" y2="15" stroke="#79f2a6" stroke-width="4" transform="rotate(28.599999999999994 45 38)"/><circle cx="45" cy="38" r="5" fill="#79f2a6"/><text x="93" y="27" fill="#879b93" font-family="monospace" font-size="9">BYTES</text><text x="93" y="48" fill="#f1f5f2" font-family="Arial" font-weight="700" font-size="17">3 MiB</text></g><g transform="translate(170 211)"><circle cx="45" cy="38" r="33" fill="#07100e" stroke="#355349" stroke-width="5"/><path d="M18 52a32 32 0 1 1 54 0" fill="none" stroke="#233b32" stroke-width="6"/><path d="M18 52a32 32 0 0 1 62.279999999999994 -33" fill="none" stroke="#ffb589" stroke-width="5" opacity=".8"/><line x1="45" y1="38" x2="45" y2="15" stroke="#ffb589" stroke-width="4" transform="rotate(83.19999999999999 45 38)"/><circle cx="45" cy="38" r="5" fill="#ffb589"/><text x="93" y="27" fill="#879b93" font-family="monospace" font-size="9">REQUESTS</text><text x="93" y="48" fill="#f1f5f2" font-family="Arial" font-weight="700" font-size="17">400</text></g><g transform="translate(35 304)"><circle cx="45" cy="38" r="33" fill="#07100e" stroke="#355349" stroke-width="5"/><path d="M18 52a32 32 0 1 1 54 0" fill="none" stroke="#233b32" stroke-width="6"/><path d="M18 52a32 32 0 0 1 46.08 -33" fill="none" stroke="#8cd8e8" stroke-width="5" opacity=".8"/><line x1="45" y1="38" x2="45" y2="15" stroke="#8cd8e8" stroke-width="4" transform="rotate(5.200000000000017 45 38)"/><circle cx="45" cy="38" r="5" fill="#8cd8e8"/><text x="93" y="27" fill="#879b93" font-family="monospace" font-size="9">CONCURRENCY</text><text x="93" y="48" fill="#f1f5f2" font-family="Arial" font-weight="700" font-size="17">8</text></g><g transform="translate(170 304)"><circle cx="45" cy="38" r="33" fill="#07100e" stroke="#355349" stroke-width="5"/><path d="M18 52a32 32 0 1 1 54 0" fill="none" stroke="#233b32" stroke-width="6"/><path d="M18 52a32 32 0 0 1 53.64 -33" fill="none" stroke="#79f2a6" stroke-width="5" opacity=".8"/><line x1="45" y1="38" x2="45" y2="15" stroke="#79f2a6" stroke-width="4" transform="rotate(41.599999999999994 45 38)"/><circle cx="45" cy="38" r="5" fill="#79f2a6"/><text x="93" y="27" fill="#879b93" font-family="monospace" font-size="9">DEADLINE</text><text x="93" y="48" fill="#f1f5f2" font-family="Arial" font-weight="700" font-size="17">10 min</text></g>
      <g transform="translate(341 150)"><rect width="212" height="172" fill="#08110e" stroke="#355349"/><text x="18" y="29" fill="#8da19a" font-family="monospace" font-size="10">LIMIT EVALUATION</text><path d="M18 56h176M18 88h176M18 120h176M18 152h176" stroke="#294139"/><circle cx="30" cy="72" r="5" fill="#79f2a6"/><circle cx="30" cy="104" r="5" fill="#79f2a6"/><circle cx="30" cy="136" r="5" fill="#ffb589"/><text x="46" y="76" fill="#c5d6cf" font-family="monospace" font-size="10">ADMIT NEXT URL</text><text x="46" y="108" fill="#c5d6cf" font-family="monospace" font-size="10">DEBIT BUDGET</text><text x="46" y="140" fill="#ffd0b2" font-family="monospace" font-size="10">STOP AT CEILING</text></g>
      <text x="344" y="386" fill="#c3d3cd" font-family="monospace" font-size="13" transform="skewY(-16)">HARD CEILINGS</text>
    </g>
    <g transform="translate(466 516)"><rect width="192" height="34" rx="17" fill="#07100e" stroke="#ffb589"/><circle cx="18" cy="17" r="5" fill="#ffb589"/><text x="33" y="21" fill="#ffcead" font-family="monospace" font-size="10">DENY WHEN EXHAUSTED</text></g>
  </svg></svg></g>
    <text x="38" y="608.34" fill="#8da19a" font-family="'Courier New',monospace" font-size="11.34" letter-spacing=".8">HACKERNOON COVER</text>
    <text x="1162" y="608.34" text-anchor="end" fill="#79f2a6" font-family="'Courier New',monospace" font-size="11.34" letter-spacing=".8">COCKROACHCRAWLER.COM</text>
  </svg>