<svg xmlns="http://www.w3.org/2000/svg" width="1600" height="840" viewBox="0 0 1600 840" role="img" aria-labelledby="title desc">
    <title id="title">Two crawl tiers. One explicit security model.</title>
    <desc id="desc">A hardened local path for untrusted URLs and a restricted serverless path for owned or trusted origins.</desc>
    <defs>
    <linearGradient id="bg" x1="0" y1="0" x2="1" y2="1"><stop stop-color="#07100e"/><stop offset="1" stop-color="#050806"/></linearGradient>
    <linearGradient id="metal" x1="0" y1="0" x2="1" y2="1"><stop stop-color="#426156"/><stop offset=".45" stop-color="#1d312a"/><stop offset="1" stop-color="#0b1512"/></linearGradient>
    <linearGradient id="metal2" x1="0" y1="0" x2="1" y2="1"><stop stop-color="#223c33"/><stop offset="1" stop-color="#0a1411"/></linearGradient>
    <linearGradient id="beam" x1="0" x2="1"><stop stop-color="#79f2a6" stop-opacity="0"/><stop offset=".5" stop-color="#79f2a6"/><stop offset="1" stop-color="#8cd8e8" stop-opacity="0"/></linearGradient>
    <radialGradient id="glow"><stop stop-color="#79f2a6" stop-opacity=".3"/><stop offset="1" stop-color="#79f2a6" stop-opacity="0"/></radialGradient>
    <pattern id="grid" width="36" height="36" patternUnits="userSpaceOnUse"><path d="M36 0H0V36" fill="none" stroke="#284139" stroke-width="1" opacity=".32"/></pattern>
    <filter id="soft"><feGaussianBlur stdDeviation="18"/></filter>
    <filter id="shadow"><feDropShadow dx="0" dy="18" stdDeviation="16" flood-color="#000" flood-opacity=".55"/></filter>
  </defs>
    <rect width="1600" height="840" fill="url(#bg)"/><rect width="1600" height="840" fill="url(#grid)" opacity=".18"/>
    <path d="M0 25.2H1600" stroke="#1e3029"/><path d="M0 810.6H1600" stroke="#1e3029"/>
    <g transform="translate(50 50)">
    <rect width="34" height="34" rx="6.12" fill="#0e1c17" stroke="#45675c"/>
    <path d="M6.800000000000001 23.799999999999997V11.56l10.2 6.800000000000001 10.2-6.800000000000001v12.24" fill="none" stroke="#79f2a6" stroke-width="2.72" stroke-linecap="square" stroke-linejoin="miter"/>
    <circle cx="17" cy="18.36" r="2.55" fill="#8cd8e8"/>
    <text x="47" y="23.459999999999997" fill="#f1f5f2" font-family="'Arial',sans-serif" font-size="15.979999999999999" font-weight="700" letter-spacing="4.08">COCKROACH CRAWLER</text>
  </g>
    <text x="50" y="189.6679245283019" fill="#79f2a6" font-family="'Courier New',monospace" font-size="16" font-weight="700" letter-spacing="2.88">COCKROACH CRAWLER / ARCHITECTURE</text>
    <text x="50" y="226.8" fill="#f1f5f2" font-family="'Arial',sans-serif" font-size="45.283018867924525" font-weight="750" letter-spacing="-1.4490566037735848"><tspan x="50" dy="0">Two crawl tiers.</tspan><tspan x="50" dy="43.471698113207545">One explicit security model.</tspan></text>
    <foreignObject x="50" y="305.13962264150945" width="672" height="56.35"><div xmlns="http://www.w3.org/1999/xhtml" style="font-family:Arial,sans-serif;font-size:23px;line-height:1.42;color:#a7b7b0;max-width:672px">A hardened local path for untrusted URLs and a restricted serverless path for owned or trusted origins.</div></foreignObject>
    <g transform="translate(50 375.2896226415094)"><rect width="174.464" height="34.8" rx="17.4" fill="#08110e" stroke="#79f2a6" stroke-opacity=".55"/><circle cx="16.24" cy="17.4" r="4.06" fill="#79f2a6"/><text x="28.999999999999996" y="22.619999999999997" fill="#c9d8d2" font-family="'Courier New',monospace" font-size="12.76" letter-spacing="0.40599999999999997">LOCAL DNS PINNING</text></g><g transform="translate(236.064 375.2896226415094)"><rect width="249.632" height="34.8" rx="17.4" fill="#08110e" stroke="#8cd8e8" stroke-opacity=".55"/><circle cx="16.24" cy="17.4" r="4.06" fill="#8cd8e8"/><text x="28.999999999999996" y="22.619999999999997" fill="#c9d8d2" font-family="'Courier New',monospace" font-size="12.76" letter-spacing="0.40599999999999997">SERVERLESS HTTPS ALLOWLIST</text></g><g transform="translate(497.29600000000005 375.2896226415094)"><rect width="207.872" height="34.8" rx="17.4" fill="#08110e" stroke="#79f2a6" stroke-opacity=".55"/><circle cx="16.24" cy="17.4" r="4.06" fill="#79f2a6"/><text x="28.999999999999996" y="22.619999999999997" fill="#c9d8d2" font-family="'Courier New',monospace" font-size="12.76" letter-spacing="0.40599999999999997">DOCUMENTED TRADE-OFFS</text></g>
    <g transform="translate(816 100.8)"><rect width="720" height="604.8" fill="#09110e" stroke="#355349"/><svg x="0" y="0" width="720" height="604.8" viewBox="0 0 720 600" preserveAspectRatio="xMidYMid meet"><svg viewBox="0 0 720 600" role="img" aria-label="Comparison of local DNS-pinned tier and restricted serverless tier">
    <rect width="720" height="600" fill="#07100e"/><rect width="720" height="600" fill="url(#grid)"/>
    <text x="36" y="45" fill="#79f2a6" font-family="monospace" font-size="12" letter-spacing="2">CHOOSE THE BOUNDARY FIRST</text><text x="36" y="70" fill="#8da19a" font-family="monospace" font-size="11">same bounded intent • different network guarantees</text>
    <g transform="translate(44 112)"><rect width="300" height="398" fill="#0b1512" stroke="#45675c"/><text x="25" y="38" fill="#f1f5f2" font-family="Arial" font-size="24" font-weight="700">Hardened local</text><text x="25" y="62" fill="#79f2a6" font-family="monospace" font-size="11">FOR UNTRUSTED PUBLIC URLS</text>
      <g transform="translate(74 102)"><g transform="translate(0 40)">
    <path d="M0 32.24 76 0 152 32.24 76 62Z" fill="url(#metal)" stroke="#527466"/>
    <path d="M0 32.24v123l76 29.759999999999998V62Z" fill="#0a1713" stroke="#527466"/>
    <path d="M76 62v123L152 155.24V32.24Z" fill="#0d211a" stroke="#527466"/>
  </g><path d="M25 87V39l52-27 56 15v48" fill="none" stroke="#79f2a6" stroke-width="7"/><path d="m57 135 20-10 23 7-22 11z" fill="#79f2a6"/></g>
      <g font-family="monospace" font-size="12"><text x="25" y="286" fill="#cbd9d3">✓ DNS answer validation</text><text x="25" y="315" fill="#cbd9d3">✓ admitted-address pinning</text><text x="25" y="344" fill="#cbd9d3">✓ redirect re-checks</text><text x="25" y="373" fill="#cbd9d3">✓ robots + hard budgets</text></g>
    </g>
    <g transform="translate(376 112)"><rect width="300" height="398" fill="#0b1512" stroke="#45675c"/><text x="25" y="38" fill="#f1f5f2" font-family="Arial" font-size="24" font-weight="700">Restricted serverless</text><text x="25" y="62" fill="#8cd8e8" font-family="monospace" font-size="11">FOR ORIGINS YOU OWN OR TRUST</text>
      <g transform="translate(74 104)"><g transform="translate(0 38)">
    <path d="M0 32.24 76 0 152 32.24 76 62Z" fill="url(#metal2)" stroke="#527466"/>
    <path d="M0 32.24v118l76 29.759999999999998V62Z" fill="#0a1713" stroke="#527466"/>
    <path d="M76 62v118L152 150.24V32.24Z" fill="#0d211a" stroke="#527466"/>
  </g><rect x="40" y="81" width="73" height="48" fill="#08110e" stroke="#8cd8e8"/><circle cx="77" cy="105" r="9" fill="#79f2a6"/><path d="M24 92h13M24 111h13M116 92h13M116 111h13" stroke="#8cd8e8" stroke-width="3"/></g>
      <g font-family="monospace" font-size="12"><text x="25" y="286" fill="#cbd9d3">✓ HTTPS origin allowlist</text><text x="25" y="315" fill="#cbd9d3">✓ robots + hard budgets</text><text x="25" y="344" fill="#ffcead">! no DNS classification</text><text x="25" y="373" fill="#ffcead">! add platform egress controls</text></g>
    </g>
    <path d="M344 311h32" stroke="#79f2a6" stroke-width="3" stroke-dasharray="5 5"/>
    <text x="360" y="556" text-anchor="middle" fill="#8da19a" font-family="monospace" font-size="11">No universal-safety claim. The deployment model decides the boundary.</text>
  </svg></svg></g>
    <text x="50" y="811.5" fill="#8da19a" font-family="'Courier New',monospace" font-size="13" letter-spacing=".8">HASHNODE COVER</text>
    <text x="1550" y="811.5" text-anchor="end" fill="#79f2a6" font-family="'Courier New',monospace" font-size="13" letter-spacing=".8">COCKROACHCRAWLER.COM</text>
  </svg>