<svg xmlns="http://www.w3.org/2000/svg" width="1400" height="788" viewBox="0 0 1400 788" role="img" aria-labelledby="title desc">
    <title id="title">From public URL to normalized record.</title>
    <desc id="desc">Keep the route, retrieval metadata, extracted content, and source identity visible to the workflow.</desc>
    <defs>
    <linearGradient id="bg" x1="0" y1="0" x2="1" y2="1"><stop stop-color="#07100e"/><stop offset="1" stop-color="#050806"/></linearGradient>
    <linearGradient id="metal" x1="0" y1="0" x2="1" y2="1"><stop stop-color="#426156"/><stop offset=".45" stop-color="#1d312a"/><stop offset="1" stop-color="#0b1512"/></linearGradient>
    <linearGradient id="metal2" x1="0" y1="0" x2="1" y2="1"><stop stop-color="#223c33"/><stop offset="1" stop-color="#0a1411"/></linearGradient>
    <linearGradient id="beam" x1="0" x2="1"><stop stop-color="#79f2a6" stop-opacity="0"/><stop offset=".5" stop-color="#79f2a6"/><stop offset="1" stop-color="#8cd8e8" stop-opacity="0"/></linearGradient>
    <radialGradient id="glow"><stop stop-color="#79f2a6" stop-opacity=".3"/><stop offset="1" stop-color="#79f2a6" stop-opacity="0"/></radialGradient>
    <pattern id="grid" width="36" height="36" patternUnits="userSpaceOnUse"><path d="M36 0H0V36" fill="none" stroke="#284139" stroke-width="1" opacity=".32"/></pattern>
    <filter id="soft"><feGaussianBlur stdDeviation="18"/></filter>
    <filter id="shadow"><feDropShadow dx="0" dy="18" stdDeviation="16" flood-color="#000" flood-opacity=".55"/></filter>
  </defs>
    <rect width="1400" height="788" fill="url(#bg)"/><rect width="1400" height="788" fill="url(#grid)" opacity=".18"/>
    <path d="M0 23.64H1400" stroke="#1e3029"/><path d="M0 760.42H1400" stroke="#1e3029"/>
    <g transform="translate(47 47)">
    <rect width="34" height="34" rx="6.12" fill="#0e1c17" stroke="#45675c"/>
    <path d="M6.800000000000001 23.799999999999997V11.56l10.2 6.800000000000001 10.2-6.800000000000001v12.24" fill="none" stroke="#79f2a6" stroke-width="2.72" stroke-linecap="square" stroke-linejoin="miter"/>
    <circle cx="17" cy="18.36" r="2.55" fill="#8cd8e8"/>
    <text x="47" y="23.459999999999997" fill="#f1f5f2" font-family="'Arial',sans-serif" font-size="15.979999999999999" font-weight="700" letter-spacing="4.08">COCKROACH CRAWLER</text>
  </g>
    <text x="47" y="169.4392452830189" fill="#79f2a6" font-family="'Courier New',monospace" font-size="16" font-weight="700" letter-spacing="2.88">FROM REQUEST TO EVIDENCE</text>
    <text x="47" y="212.76000000000002" fill="#f1f5f2" font-family="'Arial',sans-serif" font-size="52.83018867924528" font-weight="750" letter-spacing="-1.6905660377358491"><tspan x="47" dy="0">From public URL</tspan><tspan x="47" dy="50.71698113207547">to normalized record.</tspan></text>
    <foreignObject x="47" y="304.15622641509435" width="588" height="55.98740000000001"><div xmlns="http://www.w3.org/1999/xhtml" style="font-family:Arial,sans-serif;font-size:22.852px;line-height:1.42;color:#a7b7b0;max-width:588px">Keep the route, retrieval metadata, extracted content, and source identity visible to the workflow.</div></foreignObject>
    <g transform="translate(47 373.85482641509435)"><rect width="83.17777777777779" height="32.833333333333336" rx="16.416666666666668" fill="#08110e" stroke="#79f2a6" stroke-opacity=".55"/><circle cx="15.322222222222223" cy="16.416666666666668" r="3.8305555555555557" fill="#79f2a6"/><text x="27.361111111111114" y="21.34166666666667" fill="#c9d8d2" font-family="'Courier New',monospace" font-size="12.03888888888889" letter-spacing="0.3830555555555556">SOURCE</text></g><g transform="translate(141.12222222222223 373.85482641509435)"><rect width="83.17777777777779" height="32.833333333333336" rx="16.416666666666668" fill="#08110e" stroke="#8cd8e8" stroke-opacity=".55"/><circle cx="15.322222222222223" cy="16.416666666666668" r="3.8305555555555557" fill="#8cd8e8"/><text x="27.361111111111114" y="21.34166666666667" fill="#c9d8d2" font-family="'Courier New',monospace" font-size="12.03888888888889" letter-spacing="0.3830555555555556">URL</text></g><g transform="translate(235.24444444444447 373.85482641509435)"><rect width="125.20444444444446" height="32.833333333333336" rx="16.416666666666668" fill="#08110e" stroke="#79f2a6" stroke-opacity=".55"/><circle cx="15.322222222222223" cy="16.416666666666668" r="3.8305555555555557" fill="#79f2a6"/><text x="27.361111111111114" y="21.34166666666667" fill="#c9d8d2" font-family="'Courier New',monospace" font-size="12.03888888888889" letter-spacing="0.3830555555555556">CONTENT HASH</text></g><g transform="translate(371.3933333333334 373.85482641509435)"><rect width="109.44444444444446" height="32.833333333333336" rx="16.416666666666668" fill="#08110e" stroke="#79f2a6" stroke-opacity=".55"/><circle cx="15.322222222222223" cy="16.416666666666668" r="3.8305555555555557" fill="#79f2a6"/><text x="27.361111111111114" y="21.34166666666667" fill="#c9d8d2" font-family="'Courier New',monospace" font-size="12.03888888888889" letter-spacing="0.3830555555555556">PROVENANCE</text></g>
    <g transform="translate(714 94.56)"><rect width="630" height="567.36" fill="#09110e" stroke="#355349"/><svg x="0" y="0" width="630" height="567.36" viewBox="0 0 720 600" preserveAspectRatio="xMidYMid meet"><svg viewBox="0 0 720 600" role="img" aria-label="Normalized record machine producing attributable structured output">
    <rect width="720" height="600" fill="#07100e"/><rect width="720" height="600" fill="url(#grid)"/><circle cx="360" cy="300" r="280" fill="url(#glow)"/>
    <text x="35" y="45" fill="#79f2a6" font-family="monospace" font-size="12" letter-spacing="2">NORMALIZED RECORDS</text><text x="35" y="70" fill="#8da19a" font-family="monospace" font-size="11">source identity and retrieval context stay attached</text>
    <g transform="translate(65 155)"><g transform="translate(0 0)">
    <path d="M0 32.24 75 0 150 32.24 75 62Z" fill="#162720" stroke="#527466"/>
    <path d="M0 32.24v85l75 29.759999999999998V62Z" fill="#0a1713" stroke="#527466"/>
    <path d="M75 62v85L150 117.24000000000001V32.24Z" fill="#0d211a" stroke="#527466"/>
  </g><path d="M26 58h83M26 79h62M26 100h91" stroke="#8cd8e8" stroke-width="3"/><text x="19" y="-13" fill="#9db2aa" font-family="monospace" font-size="12">PUBLIC SOURCE</text></g>
    <path d="M215 273h102" stroke="#79f2a6" stroke-width="5" stroke-dasharray="9 7"/><path d="m307 263 15 10-15 10" fill="#79f2a6"/>
    <g transform="translate(305 105)" filter="url(#shadow)"><rect width="352" height="404" fill="#0b1512" stroke="#55796d"/><rect width="352" height="50" fill="#101c17" stroke="#45675c"/><circle cx="26" cy="25" r="7" fill="#79f2a6"/><text x="47" y="30" fill="#f1f5f2" font-family="Arial" font-size="16" font-weight="700">page.record.json</text>
      <g transform="translate(24 76)"><text x="0" y="18" fill="#79f2a6" font-family="monospace" font-size="9">source</text><text x="142" y="18" fill="#c8d6d0" font-family="monospace" font-size="9">web</text><path d="M0 29h304" stroke="#243a32"/></g><g transform="translate(24 118)"><text x="0" y="18" fill="#79f2a6" font-family="monospace" font-size="9">type</text><text x="142" y="18" fill="#c8d6d0" font-family="monospace" font-size="9">document</text><path d="M0 29h304" stroke="#243a32"/></g><g transform="translate(24 160)"><text x="0" y="18" fill="#79f2a6" font-family="monospace" font-size="9">title</text><text x="142" y="18" fill="#c8d6d0" font-family="monospace" font-size="9">Deployment guide</text><path d="M0 29h304" stroke="#243a32"/></g><g transform="translate(24 202)"><text x="0" y="18" fill="#79f2a6" font-family="monospace" font-size="9">url</text><text x="142" y="18" fill="#c8d6d0" font-family="monospace" font-size="9">https://example.test/guide</text><path d="M0 29h304" stroke="#243a32"/></g><g transform="translate(24 244)"><text x="0" y="18" fill="#79f2a6" font-family="monospace" font-size="9">text</text><text x="142" y="18" fill="#c8d6d0" font-family="monospace" font-size="9">Retrieved page content…</text><path d="M0 29h304" stroke="#243a32"/></g><g transform="translate(24 286)"><text x="0" y="18" fill="#79f2a6" font-family="monospace" font-size="9">contentHash</text><text x="142" y="18" fill="#c8d6d0" font-family="monospace" font-size="9">sha256:4f29…</text><path d="M0 29h304" stroke="#243a32"/></g><g transform="translate(24 328)"><text x="0" y="18" fill="#79f2a6" font-family="monospace" font-size="9">provenance.retrievedAt</text><text x="142" y="18" fill="#c8d6d0" font-family="monospace" font-size="9">2026-07-18T…Z</text><path d="M0 29h304" stroke="#243a32"/></g>
      <g transform="translate(24 370)"><rect width="122" height="24" rx="12" fill="#07100e" stroke="#79f2a6"/><text x="61" y="16" text-anchor="middle" fill="#b1f8c9" font-family="monospace" font-size="9">ATTRIBUTABLE</text><rect x="137" width="142" height="24" rx="12" fill="#07100e" stroke="#8cd8e8"/><text x="208" y="16" text-anchor="middle" fill="#b9e7f1" font-family="monospace" font-size="9">WORKFLOW-READY</text></g>
    </g>
    <g transform="translate(73 360)"><rect width="161" height="96" fill="#0c1714" stroke="#45675c"/><text x="18" y="26" fill="#8da19a" font-family="monospace" font-size="9">READ-ONLY INPUT</text><text x="18" y="50" fill="#f1f5f2" font-family="Arial" font-size="15" font-weight="700">Web or API</text><text x="18" y="73" fill="#79f2a6" font-family="monospace" font-size="10">same record shape</text></g>
  </svg></svg></g>
    <text x="47" y="761.21" fill="#8da19a" font-family="'Courier New',monospace" font-size="13" letter-spacing=".8">MEDIUM COVER</text>
    <text x="1353" y="761.21" text-anchor="end" fill="#79f2a6" font-family="'Courier New',monospace" font-size="13" letter-spacing=".8">COCKROACHCRAWLER.COM</text>
  </svg>