<svg xmlns="http://www.w3.org/2000/svg" width="1270" height="760" viewBox="0 0 1270 760" role="img" aria-labelledby="title desc">
    <title id="title">Two crawl tiers. One honest boundary.</title>
    <desc id="desc">Use DNS-pinned local crawling for untrusted public URLs. Use the small serverless tier only for origins you own or trust.</desc>
    <defs>
    <linearGradient id="bg" x1="0" y1="0" x2="1" y2="1"><stop stop-color="#07100e"/><stop offset="1" stop-color="#050806"/></linearGradient>
    <linearGradient id="metal" x1="0" y1="0" x2="1" y2="1"><stop stop-color="#426156"/><stop offset=".45" stop-color="#1d312a"/><stop offset="1" stop-color="#0b1512"/></linearGradient>
    <linearGradient id="metal2" x1="0" y1="0" x2="1" y2="1"><stop stop-color="#223c33"/><stop offset="1" stop-color="#0a1411"/></linearGradient>
    <linearGradient id="beam" x1="0" x2="1"><stop stop-color="#79f2a6" stop-opacity="0"/><stop offset=".5" stop-color="#79f2a6"/><stop offset="1" stop-color="#8cd8e8" stop-opacity="0"/></linearGradient>
    <radialGradient id="glow"><stop stop-color="#79f2a6" stop-opacity=".3"/><stop offset="1" stop-color="#79f2a6" stop-opacity="0"/></radialGradient>
    <pattern id="grid" width="36" height="36" patternUnits="userSpaceOnUse"><path d="M36 0H0V36" fill="none" stroke="#284139" stroke-width="1" opacity=".32"/></pattern>
    <filter id="soft"><feGaussianBlur stdDeviation="18"/></filter>
    <filter id="shadow"><feDropShadow dx="0" dy="18" stdDeviation="16" flood-color="#000" flood-opacity=".55"/></filter>
  </defs>
    <rect width="1270" height="760" fill="url(#bg)"/><rect width="1270" height="760" fill="url(#grid)" opacity=".18"/>
    <path d="M0 22.8H1270" stroke="#1e3029"/><path d="M0 733.4H1270" stroke="#1e3029"/>
    <g transform="translate(46 46)">
    <rect width="34" height="34" rx="6.12" fill="#0e1c17" stroke="#45675c"/>
    <path d="M6.800000000000001 23.799999999999997V11.56l10.2 6.800000000000001 10.2-6.800000000000001v12.24" fill="none" stroke="#79f2a6" stroke-width="2.72" stroke-linecap="square" stroke-linejoin="miter"/>
    <circle cx="17" cy="18.36" r="2.55" fill="#8cd8e8"/>
    <text x="47" y="23.459999999999997" fill="#f1f5f2" font-family="'Arial',sans-serif" font-size="15.979999999999999" font-weight="700" letter-spacing="4.08">COCKROACH CRAWLER</text>
  </g>
    <text x="46" y="163.93698113207552" fill="#79f2a6" font-family="'Courier New',monospace" font-size="15.96" font-weight="700" letter-spacing="2.8728000000000002">PRODUCT HUNT / PROOF 01</text>
    <text x="46" y="205.20000000000002" fill="#f1f5f2" font-family="'Arial',sans-serif" font-size="50.32075471698112" font-weight="750" letter-spacing="-1.610264150943396"><tspan x="46" dy="0">Two crawl tiers.</tspan><tspan x="46" dy="48.307924528301875">One honest boundary.</tspan></text>
    <foreignObject x="46" y="292.25490566037735" width="533.4" height="53.99800000000001"><div xmlns="http://www.w3.org/1999/xhtml" style="font-family:Arial,sans-serif;font-size:22.040000000000003px;line-height:1.42;color:#a7b7b0;max-width:533.4px">Use DNS-pinned local crawling for untrusted public URLs. Use the small serverless tier only for origins you own or trust.</div></foreignObject>
    <g transform="translate(46 359.4769056603774)"><rect width="265.15555555555557" height="31.666666666666668" rx="15.833333333333334" fill="#08110e" stroke="#79f2a6" stroke-opacity=".55"/><circle cx="14.777777777777779" cy="15.833333333333334" r="3.6944444444444446" fill="#79f2a6"/><text x="26.38888888888889" y="20.583333333333332" fill="#c9d8d2" font-family="'Courier New',monospace" font-size="11.61111111111111" letter-spacing="0.3694444444444444">LOCAL: DNS VALIDATION + PINNING</text></g><g transform="translate(321.7111111111111 359.4769056603774)"><rect width="234.75555555555556" height="31.666666666666668" rx="15.833333333333334" fill="#08110e" stroke="#8cd8e8" stroke-opacity=".55"/><circle cx="14.777777777777779" cy="15.833333333333334" r="3.6944444444444446" fill="#8cd8e8"/><text x="26.38888888888889" y="20.583333333333332" fill="#c9d8d2" font-family="'Courier New',monospace" font-size="11.61111111111111" letter-spacing="0.3694444444444444">SERVERLESS: HTTPS ALLOWLIST</text></g><g transform="translate(46 399.58801677148847)"><rect width="181.55555555555557" height="31.666666666666668" rx="15.833333333333334" fill="#08110e" stroke="#79f2a6" stroke-opacity=".55"/><circle cx="14.777777777777779" cy="15.833333333333334" r="3.6944444444444446" fill="#79f2a6"/><text x="26.38888888888889" y="20.583333333333332" fill="#c9d8d2" font-family="'Courier New',monospace" font-size="11.61111111111111" letter-spacing="0.3694444444444444">LIMITS AT BOTH TIERS</text></g>
    <g transform="translate(647.7 91.2)"><rect width="571.5" height="547.1999999999999" fill="#09110e" stroke="#355349"/><svg x="0" y="0" width="571.5" height="547.1999999999999" viewBox="0 0 720 600" preserveAspectRatio="xMidYMid meet"><svg viewBox="0 0 720 600" role="img" aria-label="Comparison of local DNS-pinned tier and restricted serverless tier">
    <rect width="720" height="600" fill="#07100e"/><rect width="720" height="600" fill="url(#grid)"/>
    <text x="36" y="45" fill="#79f2a6" font-family="monospace" font-size="12" letter-spacing="2">CHOOSE THE BOUNDARY FIRST</text><text x="36" y="70" fill="#8da19a" font-family="monospace" font-size="11">same bounded intent • different network guarantees</text>
    <g transform="translate(44 112)"><rect width="300" height="398" fill="#0b1512" stroke="#45675c"/><text x="25" y="38" fill="#f1f5f2" font-family="Arial" font-size="24" font-weight="700">Hardened local</text><text x="25" y="62" fill="#79f2a6" font-family="monospace" font-size="11">FOR UNTRUSTED PUBLIC URLS</text>
      <g transform="translate(74 102)"><g transform="translate(0 40)">
    <path d="M0 32.24 76 0 152 32.24 76 62Z" fill="url(#metal)" stroke="#527466"/>
    <path d="M0 32.24v123l76 29.759999999999998V62Z" fill="#0a1713" stroke="#527466"/>
    <path d="M76 62v123L152 155.24V32.24Z" fill="#0d211a" stroke="#527466"/>
  </g><path d="M25 87V39l52-27 56 15v48" fill="none" stroke="#79f2a6" stroke-width="7"/><path d="m57 135 20-10 23 7-22 11z" fill="#79f2a6"/></g>
      <g font-family="monospace" font-size="12"><text x="25" y="286" fill="#cbd9d3">✓ DNS answer validation</text><text x="25" y="315" fill="#cbd9d3">✓ admitted-address pinning</text><text x="25" y="344" fill="#cbd9d3">✓ redirect re-checks</text><text x="25" y="373" fill="#cbd9d3">✓ robots + hard budgets</text></g>
    </g>
    <g transform="translate(376 112)"><rect width="300" height="398" fill="#0b1512" stroke="#45675c"/><text x="25" y="38" fill="#f1f5f2" font-family="Arial" font-size="24" font-weight="700">Restricted serverless</text><text x="25" y="62" fill="#8cd8e8" font-family="monospace" font-size="11">FOR ORIGINS YOU OWN OR TRUST</text>
      <g transform="translate(74 104)"><g transform="translate(0 38)">
    <path d="M0 32.24 76 0 152 32.24 76 62Z" fill="url(#metal2)" stroke="#527466"/>
    <path d="M0 32.24v118l76 29.759999999999998V62Z" fill="#0a1713" stroke="#527466"/>
    <path d="M76 62v118L152 150.24V32.24Z" fill="#0d211a" stroke="#527466"/>
  </g><rect x="40" y="81" width="73" height="48" fill="#08110e" stroke="#8cd8e8"/><circle cx="77" cy="105" r="9" fill="#79f2a6"/><path d="M24 92h13M24 111h13M116 92h13M116 111h13" stroke="#8cd8e8" stroke-width="3"/></g>
      <g font-family="monospace" font-size="12"><text x="25" y="286" fill="#cbd9d3">✓ HTTPS origin allowlist</text><text x="25" y="315" fill="#cbd9d3">✓ robots + hard budgets</text><text x="25" y="344" fill="#ffcead">! no DNS classification</text><text x="25" y="373" fill="#ffcead">! add platform egress controls</text></g>
    </g>
    <path d="M344 311h32" stroke="#79f2a6" stroke-width="3" stroke-dasharray="5 5"/>
    <text x="360" y="556" text-anchor="middle" fill="#8da19a" font-family="monospace" font-size="11">No universal-safety claim. The deployment model decides the boundary.</text>
  </svg></svg></g>
    <text x="46" y="733.78" fill="#8da19a" font-family="'Courier New',monospace" font-size="13" letter-spacing=".8">CHOOSE THE SECURITY BOUNDARY BEFORE THE FIRST REQUEST.</text>
    <text x="1224" y="733.78" text-anchor="end" fill="#79f2a6" font-family="'Courier New',monospace" font-size="13" letter-spacing=".8">COCKROACHCRAWLER.COM</text>
  </svg>