<svg xmlns="http://www.w3.org/2000/svg" width="1270" height="760" viewBox="0 0 1270 760" role="img" aria-labelledby="title desc">
    <title id="title">Know which sources are ready.</title>
    <desc id="desc">Run one local doctor command before a workflow touches the web, an API, or an optional read session.</desc>
    <defs>
    <linearGradient id="bg" x1="0" y1="0" x2="1" y2="1"><stop stop-color="#07100e"/><stop offset="1" stop-color="#050806"/></linearGradient>
    <linearGradient id="metal" x1="0" y1="0" x2="1" y2="1"><stop stop-color="#426156"/><stop offset=".45" stop-color="#1d312a"/><stop offset="1" stop-color="#0b1512"/></linearGradient>
    <linearGradient id="metal2" x1="0" y1="0" x2="1" y2="1"><stop stop-color="#223c33"/><stop offset="1" stop-color="#0a1411"/></linearGradient>
    <linearGradient id="beam" x1="0" x2="1"><stop stop-color="#79f2a6" stop-opacity="0"/><stop offset=".5" stop-color="#79f2a6"/><stop offset="1" stop-color="#8cd8e8" stop-opacity="0"/></linearGradient>
    <radialGradient id="glow"><stop stop-color="#79f2a6" stop-opacity=".3"/><stop offset="1" stop-color="#79f2a6" stop-opacity="0"/></radialGradient>
    <pattern id="grid" width="36" height="36" patternUnits="userSpaceOnUse"><path d="M36 0H0V36" fill="none" stroke="#284139" stroke-width="1" opacity=".32"/></pattern>
    <filter id="soft"><feGaussianBlur stdDeviation="18"/></filter>
    <filter id="shadow"><feDropShadow dx="0" dy="18" stdDeviation="16" flood-color="#000" flood-opacity=".55"/></filter>
  </defs>
    <rect width="1270" height="760" fill="url(#bg)"/><rect width="1270" height="760" fill="url(#grid)" opacity=".18"/>
    <path d="M0 22.8H1270" stroke="#1e3029"/><path d="M0 733.4H1270" stroke="#1e3029"/>
    <g transform="translate(46 46)">
    <rect width="34" height="34" rx="6.12" fill="#0e1c17" stroke="#45675c"/>
    <path d="M6.800000000000001 23.799999999999997V11.56l10.2 6.800000000000001 10.2-6.800000000000001v12.24" fill="none" stroke="#79f2a6" stroke-width="2.72" stroke-linecap="square" stroke-linejoin="miter"/>
    <circle cx="17" cy="18.36" r="2.55" fill="#8cd8e8"/>
    <text x="47" y="23.459999999999997" fill="#f1f5f2" font-family="'Arial',sans-serif" font-size="15.979999999999999" font-weight="700" letter-spacing="4.08">COCKROACH CRAWLER</text>
  </g>
    <text x="46" y="159.35220125786168" fill="#79f2a6" font-family="'Courier New',monospace" font-size="15.96" font-weight="700" letter-spacing="2.8728000000000002">PRODUCT HUNT / PROOF 02</text>
    <text x="46" y="205.20000000000002" fill="#f1f5f2" font-family="'Arial',sans-serif" font-size="55.91194968553458" font-weight="750" letter-spacing="-1.7891823899371067"><tspan x="46" dy="0">Know which sources</tspan><tspan x="46" dy="53.67547169811319">are ready.</tspan></text>
    <foreignObject x="46" y="301.9276729559748" width="533.4" height="53.99800000000001"><div xmlns="http://www.w3.org/1999/xhtml" style="font-family:Arial,sans-serif;font-size:22.040000000000003px;line-height:1.42;color:#a7b7b0;max-width:533.4px">Run one local doctor command before a workflow touches the web, an API, or an optional read session.</div></foreignObject>
    <g transform="translate(46 369.1496729559748)"><rect width="80.22222222222223" height="31.666666666666668" rx="15.833333333333334" fill="#08110e" stroke="#79f2a6" stroke-opacity=".55"/><circle cx="14.777777777777779" cy="15.833333333333334" r="3.6944444444444446" fill="#79f2a6"/><text x="26.38888888888889" y="20.583333333333332" fill="#c9d8d2" font-family="'Courier New',monospace" font-size="11.61111111111111" letter-spacing="0.3694444444444444">WEB</text></g><g transform="translate(136.77777777777777 369.1496729559748)"><rect width="80.22222222222223" height="31.666666666666668" rx="15.833333333333334" fill="#08110e" stroke="#8cd8e8" stroke-opacity=".55"/><circle cx="14.777777777777779" cy="15.833333333333334" r="3.6944444444444446" fill="#8cd8e8"/><text x="26.38888888888889" y="20.583333333333332" fill="#c9d8d2" font-family="'Courier New',monospace" font-size="11.61111111111111" letter-spacing="0.3694444444444444">GITHUB</text></g><g transform="translate(227.55555555555554 369.1496729559748)"><rect width="82.75555555555556" height="31.666666666666668" rx="15.833333333333334" fill="#08110e" stroke="#79f2a6" stroke-opacity=".55"/><circle cx="14.777777777777779" cy="15.833333333333334" r="3.6944444444444446" fill="#79f2a6"/><text x="26.38888888888889" y="20.583333333333332" fill="#c9d8d2" font-family="'Courier New',monospace" font-size="11.61111111111111" letter-spacing="0.3694444444444444">YOUTUBE</text></g><g transform="translate(320.8666666666667 369.1496729559748)"><rect width="128.35555555555555" height="31.666666666666668" rx="15.833333333333334" fill="#08110e" stroke="#79f2a6" stroke-opacity=".55"/><circle cx="14.777777777777779" cy="15.833333333333334" r="3.6944444444444446" fill="#79f2a6"/><text x="26.38888888888889" y="20.583333333333332" fill="#c9d8d2" font-family="'Courier New',monospace" font-size="11.61111111111111" letter-spacing="0.3694444444444444">OFFICIAL APIS</text></g>
    <g transform="translate(647.7 91.2)"><rect width="571.5" height="547.1999999999999" fill="#09110e" stroke="#355349"/><svg x="0" y="0" width="571.5" height="547.1999999999999" viewBox="0 0 720 600" preserveAspectRatio="xMidYMid meet"><svg viewBox="0 0 720 600" role="img" aria-label="Source doctor checking web and read-only provider adapters">
    <rect width="720" height="600" fill="#07100e"/><rect width="720" height="600" fill="url(#grid)"/><circle cx="385" cy="295" r="290" fill="url(#glow)"/>
    <text x="35" y="45" fill="#79f2a6" font-family="monospace" font-size="12" letter-spacing="2">SOURCE DOCTOR / LOCAL CHECK</text><text x="35" y="70" fill="#8da19a" font-family="monospace" font-size="11">availability and credential state before dispatch</text>
    <g transform="translate(70 104)"><rect width="580" height="400" rx="4" fill="#0b1411" stroke="#45675c"/><rect width="580" height="48" fill="#101a16" stroke="#45675c"/><circle cx="25" cy="24" r="5" fill="#ff8b7b"/><circle cx="43" cy="24" r="5" fill="#ffb589"/><circle cx="61" cy="24" r="5" fill="#79f2a6"/><text x="86" y="29" fill="#8fa39b" font-family="monospace" font-size="11">$ cockroach-sources doctor --json</text>
      <g transform="translate(24 73)"><rect width="532" height="46" fill="#0e1b17" stroke="#284139"/><circle cx="22" cy="23" r="6" fill="#79f2a6"/><text x="44" y="20" fill="#eef4f1" font-family="Arial" font-size="14" font-weight="700">WEB</text><text x="44" y="35" fill="#82988f" font-family="monospace" font-size="9">READ-ONLY ADAPTER</text><rect x="355" y="10" width="155" height="26" rx="13" fill="#07100e" stroke="#79f2a6" stroke-opacity=".6"/><text x="432" y="27" text-anchor="middle" fill="#79f2a6" font-family="monospace" font-size="9">READY</text></g><g transform="translate(24 133)"><rect width="532" height="46" fill="#0e1b17" stroke="#284139"/><circle cx="22" cy="23" r="6" fill="#79f2a6"/><text x="44" y="20" fill="#eef4f1" font-family="Arial" font-size="14" font-weight="700">GITHUB</text><text x="44" y="35" fill="#82988f" font-family="monospace" font-size="9">READ-ONLY ADAPTER</text><rect x="355" y="10" width="155" height="26" rx="13" fill="#07100e" stroke="#79f2a6" stroke-opacity=".6"/><text x="432" y="27" text-anchor="middle" fill="#79f2a6" font-family="monospace" font-size="9">PUBLIC / TOKEN</text></g><g transform="translate(24 193)"><rect width="532" height="46" fill="#0e1b17" stroke="#284139"/><circle cx="22" cy="23" r="6" fill="#8cd8e8"/><text x="44" y="20" fill="#eef4f1" font-family="Arial" font-size="14" font-weight="700">YOUTUBE</text><text x="44" y="35" fill="#82988f" font-family="monospace" font-size="9">READ-ONLY ADAPTER</text><rect x="355" y="10" width="155" height="26" rx="13" fill="#07100e" stroke="#8cd8e8" stroke-opacity=".6"/><text x="432" y="27" text-anchor="middle" fill="#8cd8e8" font-family="monospace" font-size="9">API / NO-KEY</text></g><g transform="translate(24 253)"><rect width="532" height="46" fill="#0e1b17" stroke="#284139"/><circle cx="22" cy="23" r="6" fill="#ffb589"/><text x="44" y="20" fill="#eef4f1" font-family="Arial" font-size="14" font-weight="700">X</text><text x="44" y="35" fill="#82988f" font-family="monospace" font-size="9">READ-ONLY ADAPTER</text><rect x="355" y="10" width="155" height="26" rx="13" fill="#07100e" stroke="#ffb589" stroke-opacity=".6"/><text x="432" y="27" text-anchor="middle" fill="#ffb589" font-family="monospace" font-size="9">API / SESSION</text></g><g transform="translate(24 313)"><rect width="532" height="46" fill="#0e1b17" stroke="#284139"/><circle cx="22" cy="23" r="6" fill="#ffb589"/><text x="44" y="20" fill="#eef4f1" font-family="Arial" font-size="14" font-weight="700">REDDIT</text><text x="44" y="35" fill="#82988f" font-family="monospace" font-size="9">READ-ONLY ADAPTER</text><rect x="355" y="10" width="155" height="26" rx="13" fill="#07100e" stroke="#ffb589" stroke-opacity=".6"/><text x="432" y="27" text-anchor="middle" fill="#ffb589" font-family="monospace" font-size="9">API / SESSION</text></g>
      <g transform="translate(24 378)"><path d="M0 0h532" stroke="#284139"/><text x="0" y="0" fill="#8da19a" font-family="monospace" font-size="10"></text></g>
    </g>
    <g transform="translate(468 514)"><rect width="182" height="34" rx="17" fill="#07100e" stroke="#79f2a6"/><circle cx="18" cy="17" r="5" fill="#79f2a6"/><text x="33" y="21" fill="#b1f8c9" font-family="monospace" font-size="10">NO COOKIE FALLBACKS</text></g>
  </svg></svg></g>
    <text x="46" y="733.78" fill="#8da19a" font-family="'Courier New',monospace" font-size="13" letter-spacing=".8">NO COOKIE EXTRACTION. AUTHORITY STAYS VISIBLE.</text>
    <text x="1224" y="733.78" text-anchor="end" fill="#79f2a6" font-family="'Courier New',monospace" font-size="13" letter-spacing=".8">COCKROACHCRAWLER.COM</text>
  </svg>