<svg xmlns="http://www.w3.org/2000/svg" width="1280" height="720" viewBox="0 0 1280 720" role="img" aria-labelledby="title desc">
    <title id="title">Public-web reach. Checked first.</title>
    <desc id="desc">Source doctor → bounded crawl → normalized evidence</desc>
    <defs>
    <linearGradient id="bg" x1="0" y1="0" x2="1" y2="1"><stop stop-color="#07100e"/><stop offset="1" stop-color="#050806"/></linearGradient>
    <linearGradient id="metal" x1="0" y1="0" x2="1" y2="1"><stop stop-color="#426156"/><stop offset=".45" stop-color="#1d312a"/><stop offset="1" stop-color="#0b1512"/></linearGradient>
    <linearGradient id="metal2" x1="0" y1="0" x2="1" y2="1"><stop stop-color="#223c33"/><stop offset="1" stop-color="#0a1411"/></linearGradient>
    <linearGradient id="beam" x1="0" x2="1"><stop stop-color="#79f2a6" stop-opacity="0"/><stop offset=".5" stop-color="#79f2a6"/><stop offset="1" stop-color="#8cd8e8" stop-opacity="0"/></linearGradient>
    <radialGradient id="glow"><stop stop-color="#79f2a6" stop-opacity=".3"/><stop offset="1" stop-color="#79f2a6" stop-opacity="0"/></radialGradient>
    <pattern id="grid" width="36" height="36" patternUnits="userSpaceOnUse"><path d="M36 0H0V36" fill="none" stroke="#284139" stroke-width="1" opacity=".32"/></pattern>
    <filter id="soft"><feGaussianBlur stdDeviation="18"/></filter>
    <filter id="shadow"><feDropShadow dx="0" dy="18" stdDeviation="16" flood-color="#000" flood-opacity=".55"/></filter>
  </defs>
    <rect width="1280" height="720" fill="url(#bg)"/><rect width="1280" height="720" fill="url(#grid)" opacity=".18"/>
    <path d="M0 21.599999999999998H1280" stroke="#1e3029"/><path d="M0 694.8H1280" stroke="#1e3029"/>
    <g transform="translate(43 43)">
    <rect width="32.4" height="32.4" rx="5.832" fill="#0e1c17" stroke="#45675c"/>
    <path d="M6.48 22.679999999999996V11.016l9.719999999999999 6.48 9.719999999999999-6.48v11.664" fill="none" stroke="#79f2a6" stroke-width="2.592" stroke-linecap="square" stroke-linejoin="miter"/>
    <circle cx="16.2" cy="17.496" r="2.4299999999999997" fill="#8cd8e8"/>
    <text x="45.4" y="22.355999999999998" fill="#f1f5f2" font-family="'Arial',sans-serif" font-size="15.227999999999998" font-weight="700" letter-spacing="3.888">COCKROACH CRAWLER</text>
  </g>
    <text x="43" y="145.47302996670368" fill="#79f2a6" font-family="'Courier New',monospace" font-size="15.120000000000001" font-weight="700" letter-spacing="2.7216">60-SECOND TECHNICAL DEMO</text>
    <text x="43" y="194.4" fill="#f1f5f2" font-family="'Arial',sans-serif" font-size="59.66703662597115" font-weight="750" letter-spacing="-1.9093451720310768"><tspan x="43" dy="0">Public-web reach.</tspan><tspan x="43" dy="57.2803551609323">Checked first.</tspan></text>
    <foreignObject x="43" y="297.6239733629301" width="537.6" height="51.15600000000001"><div xmlns="http://www.w3.org/1999/xhtml" style="font-family:Arial,sans-serif;font-size:20.880000000000003px;line-height:1.42;color:#a7b7b0;max-width:537.6px">Source doctor → bounded crawl → normalized evidence</div></foreignObject>
    <g transform="translate(43 361.3079733629301)"><rect width="121.60000000000001" height="30" rx="15" fill="#08110e" stroke="#79f2a6" stroke-opacity=".55"/><circle cx="14" cy="15" r="3.5" fill="#79f2a6"/><text x="25" y="19.5" fill="#c9d8d2" font-family="'Courier New',monospace" font-size="11" letter-spacing="0.35">REAL CLI FLOW</text></g><g transform="translate(174.60000000000002 361.3079733629301)"><rect width="107.2" height="30" rx="15" fill="#08110e" stroke="#8cd8e8" stroke-opacity=".55"/><circle cx="14" cy="15" r="3.5" fill="#8cd8e8"/><text x="25" y="19.5" fill="#c9d8d2" font-family="'Courier New',monospace" font-size="11" letter-spacing="0.35">LOCAL PROOF</text></g>
    <g transform="translate(652.8 86.39999999999999)"><rect width="576" height="518.4" fill="#09110e" stroke="#355349"/><svg x="0" y="0" width="576" height="518.4" viewBox="0 0 720 600" preserveAspectRatio="xMidYMid meet"><svg viewBox="0 0 720 600" role="img" aria-label="Source doctor checking web and read-only provider adapters">
    <rect width="720" height="600" fill="#07100e"/><rect width="720" height="600" fill="url(#grid)"/><circle cx="385" cy="295" r="290" fill="url(#glow)"/>
    <text x="35" y="45" fill="#79f2a6" font-family="monospace" font-size="12" letter-spacing="2">SOURCE DOCTOR / LOCAL CHECK</text><text x="35" y="70" fill="#8da19a" font-family="monospace" font-size="11">availability and credential state before dispatch</text>
    <g transform="translate(70 104)"><rect width="580" height="400" rx="4" fill="#0b1411" stroke="#45675c"/><rect width="580" height="48" fill="#101a16" stroke="#45675c"/><circle cx="25" cy="24" r="5" fill="#ff8b7b"/><circle cx="43" cy="24" r="5" fill="#ffb589"/><circle cx="61" cy="24" r="5" fill="#79f2a6"/><text x="86" y="29" fill="#8fa39b" font-family="monospace" font-size="11">$ cockroach-sources doctor --json</text>
      <g transform="translate(24 73)"><rect width="532" height="46" fill="#0e1b17" stroke="#284139"/><circle cx="22" cy="23" r="6" fill="#79f2a6"/><text x="44" y="20" fill="#eef4f1" font-family="Arial" font-size="14" font-weight="700">WEB</text><text x="44" y="35" fill="#82988f" font-family="monospace" font-size="9">READ-ONLY ADAPTER</text><rect x="355" y="10" width="155" height="26" rx="13" fill="#07100e" stroke="#79f2a6" stroke-opacity=".6"/><text x="432" y="27" text-anchor="middle" fill="#79f2a6" font-family="monospace" font-size="9">READY</text></g><g transform="translate(24 133)"><rect width="532" height="46" fill="#0e1b17" stroke="#284139"/><circle cx="22" cy="23" r="6" fill="#79f2a6"/><text x="44" y="20" fill="#eef4f1" font-family="Arial" font-size="14" font-weight="700">GITHUB</text><text x="44" y="35" fill="#82988f" font-family="monospace" font-size="9">READ-ONLY ADAPTER</text><rect x="355" y="10" width="155" height="26" rx="13" fill="#07100e" stroke="#79f2a6" stroke-opacity=".6"/><text x="432" y="27" text-anchor="middle" fill="#79f2a6" font-family="monospace" font-size="9">PUBLIC / TOKEN</text></g><g transform="translate(24 193)"><rect width="532" height="46" fill="#0e1b17" stroke="#284139"/><circle cx="22" cy="23" r="6" fill="#8cd8e8"/><text x="44" y="20" fill="#eef4f1" font-family="Arial" font-size="14" font-weight="700">YOUTUBE</text><text x="44" y="35" fill="#82988f" font-family="monospace" font-size="9">READ-ONLY ADAPTER</text><rect x="355" y="10" width="155" height="26" rx="13" fill="#07100e" stroke="#8cd8e8" stroke-opacity=".6"/><text x="432" y="27" text-anchor="middle" fill="#8cd8e8" font-family="monospace" font-size="9">API / NO-KEY</text></g><g transform="translate(24 253)"><rect width="532" height="46" fill="#0e1b17" stroke="#284139"/><circle cx="22" cy="23" r="6" fill="#ffb589"/><text x="44" y="20" fill="#eef4f1" font-family="Arial" font-size="14" font-weight="700">X</text><text x="44" y="35" fill="#82988f" font-family="monospace" font-size="9">READ-ONLY ADAPTER</text><rect x="355" y="10" width="155" height="26" rx="13" fill="#07100e" stroke="#ffb589" stroke-opacity=".6"/><text x="432" y="27" text-anchor="middle" fill="#ffb589" font-family="monospace" font-size="9">API / SESSION</text></g><g transform="translate(24 313)"><rect width="532" height="46" fill="#0e1b17" stroke="#284139"/><circle cx="22" cy="23" r="6" fill="#ffb589"/><text x="44" y="20" fill="#eef4f1" font-family="Arial" font-size="14" font-weight="700">REDDIT</text><text x="44" y="35" fill="#82988f" font-family="monospace" font-size="9">READ-ONLY ADAPTER</text><rect x="355" y="10" width="155" height="26" rx="13" fill="#07100e" stroke="#ffb589" stroke-opacity=".6"/><text x="432" y="27" text-anchor="middle" fill="#ffb589" font-family="monospace" font-size="9">API / SESSION</text></g>
      <g transform="translate(24 378)"><path d="M0 0h532" stroke="#284139"/><text x="0" y="0" fill="#8da19a" font-family="monospace" font-size="10"></text></g>
    </g>
    <g transform="translate(468 514)"><rect width="182" height="34" rx="17" fill="#07100e" stroke="#79f2a6"/><circle cx="18" cy="17" r="5" fill="#79f2a6"/><text x="33" y="21" fill="#b1f8c9" font-family="monospace" font-size="10">NO COOKIE FALLBACKS</text></g>
  </svg></svg></g>
    <text x="43" y="695.49" fill="#8da19a" font-family="'Courier New',monospace" font-size="12.959999999999999" letter-spacing=".8">COCKROACH CRAWLER</text>
    <text x="1237" y="695.49" text-anchor="end" fill="#79f2a6" font-family="'Courier New',monospace" font-size="12.959999999999999" letter-spacing=".8">COCKROACHCRAWLER.COM</text>
  </svg>